<svg xmlns="http://www.w3.org/2000/svg">

	<g id="logo">
		<path d="M179.701,8.552 L179.205,10.460 C178.937,11.414 178.326,11.528 177.676,11.338 C177.142,11.147 176.530,11.32 175.995,11.32 C173.473,11.32 172.59,12.941 172.59,15.688 L172.59,24.770 C172.59,25.687 171.563,26.259 170.645,26.259 L168.429,26.259 C167.512,26.259 166.977,25.687 166.977,24.770 L166.977,8.438 C166.977,7.522 167.512,6.988 168.429,6.988 L169.881,6.988 C170.799,6.988 171.333,7.522 171.333,8.438 L171.333,9.621 C172.556,7.789 174.276,6.682 176.454,6.682 C177.409,6.682 178.97,6.797 178.861,7.26 C179.434,7.216 179.969,7.522 179.701,8.552 ZM152.726,26.755 C146.689,26.755 142.256,22.443 142.256,16.718 C142.256,10.994 146.689,6.682 152.726,6.682 C158.764,6.682 163.158,10.994 163.158,16.718 C163.158,22.443 158.764,26.755 152.726,26.755 ZM152.726,11.71 C149.593,11.71 147.300,13.475 147.300,16.718 C147.300,19.962 149.555,22.328 152.726,22.328 C155.860,22.328 158.114,19.962 158.114,16.718 C158.114,13.475 155.860,11.71 152.726,11.71 ZM136.182,26.755 C132.553,26.755 129.457,24.618 129.457,19.886 L129.457,10.803 L127.585,10.803 C126.668,10.803 126.95,10.269 126.95,9.354 L126.95,8.399 C126.95,7.483 126.668,6.988 127.585,6.988 L129.457,6.988 L129.457,2.179 C129.457,1.302 129.954,0.881 130.909,0.691 L132.973,0.271 C134.5,0.42 134.501,0.729 134.501,1.721 L134.501,6.988 L138.743,6.988 C139.660,6.988 140.233,7.483 140.233,8.399 L140.233,9.354 C140.233,10.269 139.660,10.803 138.743,10.803 L134.501,10.803 L134.501,19.428 C134.501,21.566 135.533,22.367 137.23,22.367 C137.673,22.367 138.246,22.100 138.781,21.794 C139.660,21.260 140.80,21.642 140.424,22.290 L141.112,23.893 C141.532,24.694 140.959,25.190 140.462,25.534 C139.393,26.297 137.863,26.755 136.182,26.755 ZM117.116,22.367 C118.377,22.367 119.791,22.61 121.281,20.726 C122.84,20.1 122.619,20.192 123.116,20.687 L124.453,22.23 C125.179,22.748 124.911,23.320 124.453,23.778 C122.390,25.839 119.791,26.755 116.964,26.755 C111.3,26.755 106.646,22.443 106.646,16.718 C106.646,10.956 111.3,6.682 116.964,6.682 C119.791,6.682 122.390,7.598 124.453,9.621 C124.911,10.78 125.179,10.689 124.453,11.414 L123.116,12.750 C122.619,13.208 122.84,13.399 121.281,12.712 C119.791,11.338 118.377,11.71 117.116,11.71 C113.945,11.71 111.691,13.475 111.691,16.718 C111.691,19.925 113.830,22.367 117.116,22.367 ZM93.581,26.755 C87.543,26.755 83.111,22.443 83.111,16.718 C83.111,10.994 87.543,6.682 93.581,6.682 C99.618,6.682 104.13,10.994 104.13,16.718 C104.13,22.443 99.618,26.755 93.581,26.755 ZM93.581,11.71 C90.447,11.71 88.155,13.475 88.155,16.718 C88.155,19.962 90.409,22.328 93.581,22.328 C96.714,22.328 98.969,19.962 98.969,16.718 C98.969,13.475 96.714,11.71 93.581,11.71 ZM67.256,26.259 L58.238,26.259 C57.283,26.259 56.709,25.687 56.709,24.732 L56.709,18.980 C56.287,19.305 55.870,19.634 55.483,19.951 C53.364,21.744 51.154,23.442 48.851,24.993 C46.996,26.243 44.887,27.773 42.651,28.223 C40.101,28.736 37.673,26.367 37.610,23.844 C37.597,23.312 37.661,22.766 37.781,22.214 C34.945,23.669 32.226,25.350 29.748,27.346 C30.181,29.220 30.27,31.289 29.675,33.85 C29.107,35.979 27.962,38.798 26.535,41.372 C25.847,42.611 25.86,43.814 24.250,44.958 C23.510,45.969 22.619,47.401 21.569,48.101 C19.600,49.411 17.460,47.33 16.916,45.276 C16.55,42.495 16.677,39.265 17.596,36.582 C18.915,32.732 21.208,29.450 24.53,26.648 C23.552,26.657 23.69,26.584 22.575,26.398 C21.657,26.51 19.228,23.948 20.867,23.44 C22.343,22.229 23.632,21.148 24.685,19.831 C25.236,19.143 25.715,18.399 26.88,17.599 C26.163,17.439 26.228,17.173 26.302,16.916 C23.854,17.163 20.22,18.531 18.4,20.102 C15.752,21.891 13.634,23.442 11.331,24.993 C9.476,26.243 7.367,27.773 5.131,28.223 C2.581,28.736 0.153,26.367 0.90,23.844 C0.18,20.952 2.199,17.650 3.607,15.227 C4.552,13.603 7.736,16.396 6.981,17.695 C5.866,19.612 4.890,21.504 4.109,23.583 C4.0,23.863 3.900,24.146 3.801,24.428 C6.450,23.956 12.115,20.594 15.772,18.22 C15.806,18.0 15.841,17.987 15.876,17.967 C15.900,17.946 15.919,17.922 15.945,17.902 C19.682,15.38 25.331,11.701 28.568,14.576 C31.509,17.189 29.732,20.738 27.196,23.378 C27.317,23.458 27.434,23.542 27.548,23.632 C31.954,21.139 35.768,19.623 39.461,18.103 C40.23,17.71 40.624,16.93 41.127,15.227 C42.72,13.603 45.256,16.396 44.501,17.695 C43.386,19.612 42.410,21.504 41.630,23.583 C41.520,23.863 41.420,24.146 41.321,24.428 C43.853,23.977 49.688,20.893 52.862,18.370 C53.237,18.57 54.904,16.653 56.709,14.972 L56.709,2.942 C56.709,1.988 57.283,1.454 58.238,1.454 L67.256,1.454 C75.204,1.454 80.286,6.415 80.286,13.818 C80.286,21.298 75.204,26.259 67.256,26.259 ZM22.108,36.322 C21.453,37.630 20.927,39.12 20.545,40.423 C20.269,41.445 20.68,42.485 20.22,43.545 C20.398,43.46 20.732,42.580 20.827,42.456 C21.622,41.414 22.351,40.326 23.2,39.189 C24.85,37.300 24.966,35.280 25.622,33.205 C25.903,32.316 26.152,31.410 26.320,30.490 C24.658,32.233 23.187,34.170 22.108,36.322 ZM67.103,5.729 L61.868,5.729 L61.868,21.985 L67.103,21.985 C71.841,21.985 75.13,18.856 75.13,13.857 C75.13,8.819 71.841,5.729 67.103,5.729 ZM47.747,11.195 C47.247,12.873 43.914,10.232 44.373,8.728 C44.724,7.688 44.556,7.476 45.964,4.909 C46.863,3.270 50.66,6.50 49.338,7.377 C47.930,9.944 48.152,9.837 47.747,11.195 ZM10.193,11.195 C9.693,12.873 6.360,10.232 6.819,8.728 C7.170,7.688 7.2,7.476 8.410,4.909 C9.309,3.270 12.512,6.50 11.783,7.377 C10.375,9.944 10.597,9.837 10.193,11.195 Z"/>
	</g>

	<g id="nav_mobile">
		<path d="M20,8H4V6h16V8z M20,11H4v2h16V11z M20,16H4v2h16V16z"/>
	</g>

	<g id="close">
		<polygon points="32,26.7 21.3,16 32,5.3 26.7,0 16,10.7 5.3,0 0,5.3 10.7,16 0,26.7 5.3,32 16,21.3 26.7,32 "/>
	</g>

	<g id="zoom">
		<path id="XMLID_223_" d="M31.2,27.4l-6.8-6.8c1.4-2.1,2.2-4.6,2.2-7.3C26.7,6,20.7,0,13.3,0S0,6,0,13.3s6,13.3,13.3,13.3
	c2.7,0,5.2-0.8,7.3-2.2l6.8,6.8c1,1,2.7,1,3.8,0C32.3,30.2,32.3,28.5,31.2,27.4z M4,13.3C4,8.2,8.2,4,13.3,4s9.3,4.2,9.3,9.3
	s-4.2,9.3-9.3,9.3S4,18.5,4,13.3z"/>
	</g>

	<g id="user">
		<path d="M15.8,15.4c2.1,0,4-0.8,5.4-2.3c1.5-1.5,2.3-3.3,2.3-5.4c0-2.1-0.8-4-2.3-5.4C19.7,0.8,17.9,0,15.8,0c-2.1,0-4,0.8-5.4,2.3 S8.1,5.6,8.1,7.7c0,2.1,0.8,4,2.3,5.4C11.8,14.7,13.7,15.4,15.8,15.4z M11.7,3.6c1.1-1.1,2.5-1.7,4.1-1.7c1.6,0,3,0.6,4.1,1.7 c1.1,1.1,1.7,2.5,1.7,4.1c0,1.6-0.6,3-1.7,4.1c-1.1,1.1-2.5,1.7-4.1,1.7c-1.6,0-3-0.6-4.1-1.7C10.5,10.7,10,9.3,10,7.7 C10,6.1,10.5,4.7,11.7,3.6z"/>
		<path d="M29.3,24.6c0-0.6-0.1-1.3-0.3-2c-0.1-0.7-0.3-1.4-0.5-2c-0.2-0.6-0.5-1.3-0.8-1.9c-0.4-0.6-0.8-1.2-1.3-1.6 c-0.5-0.5-1.1-0.9-1.8-1.1c-0.7-0.3-1.5-0.4-2.3-0.4c-0.3,0-0.6,0.1-1.3,0.5c-0.4,0.2-0.8,0.5-1.3,0.8c-0.4,0.3-1,0.5-1.7,0.7 c-0.7,0.2-1.4,0.3-2.1,0.3c-0.7,0-1.4-0.1-2.1-0.3c-0.7-0.2-1.3-0.5-1.7-0.7c-0.5-0.3-0.9-0.6-1.3-0.8c-0.6-0.4-0.9-0.5-1.3-0.5 c-0.8,0-1.6,0.1-2.3,0.4c-0.7,0.3-1.3,0.7-1.8,1.1c-0.5,0.5-0.9,1-1.3,1.6c-0.3,0.6-0.6,1.2-0.8,1.9c-0.2,0.6-0.4,1.3-0.5,2 c-0.1,0.7-0.2,1.4-0.3,2c0,0.6-0.1,1.2-0.1,1.9c0,1.7,0.5,3,1.6,4c1,1,2.4,1.5,4.1,1.5h15.4c1.7,0,3-0.5,4.1-1.5c1-1,1.6-2.3,1.6-4 C29.3,25.9,29.3,25.2,29.3,24.6z M26.5,29.2c-0.7,0.7-1.6,1-2.8,1H8.3c-1.2,0-2.1-0.3-2.8-1c-0.7-0.6-1-1.5-1-2.7 c0-0.6,0-1.2,0.1-1.8c0-0.6,0.1-1.2,0.2-1.8c0.1-0.6,0.3-1.2,0.4-1.8c0.2-0.5,0.4-1,0.7-1.5c0.3-0.5,0.6-0.9,0.9-1.2 c0.3-0.3,0.7-0.6,1.2-0.7c0.4-0.2,0.9-0.3,1.5-0.3c0.1,0,0.2,0.1,0.4,0.2c0.4,0.3,0.8,0.5,1.3,0.9c0.6,0.4,1.3,0.7,2.1,0.9 c0.9,0.3,1.8,0.4,2.6,0.4s1.8-0.1,2.6-0.4c0.9-0.3,1.6-0.6,2.1-0.9c0.5-0.3,0.9-0.6,1.3-0.9c0.2-0.1,0.3-0.2,0.4-0.2 c0.5,0,1,0.1,1.5,0.3c0.5,0.2,0.9,0.4,1.2,0.7c0.3,0.3,0.7,0.7,0.9,1.2c0.3,0.5,0.5,1,0.7,1.5c0.2,0.5,0.3,1.1,0.4,1.8 c0.1,0.7,0.2,1.3,0.2,1.8v0c0,0.6,0.1,1.2,0.1,1.8C27.5,27.6,27.1,28.5,26.5,29.2z"/>
	</g>

</svg>